<!DOCTYPE svg PUBLIC "-//W3C//DTD SVG 1.1//EN" "http://www.w3.org/Graphics/SVG/1.1/DTD/svg11.dtd">

<!-- Uploaded to: SVG Repo, www.svgrepo.com, Transformed by: SVG Repo Mixer Tools -->
<svg fill="#ffffff" width="30px" height="30px" viewBox="0 0 24 24" xmlns="http://www.w3.org/2000/svg" stroke="#ffffff">

<g id="SVGRepo_bgCarrier" stroke-width="0"/>

<g id="SVGRepo_tracerCarrier" stroke-linecap="round" stroke-linejoin="round"/>

<g id="SVGRepo_iconCarrier"> <g id="Youtube"> <g> <path d="M19.437,19.937H4.562a2.5,2.5,0,0,1-2.5-2.5V6.563a2.5,2.5,0,0,1,2.5-2.5H19.437a2.5,2.5,0,0,1,2.5,2.5V17.437A2.5,2.5,0,0,1,19.437,19.937ZM4.562,5.063a1.5,1.5,0,0,0-1.5,1.5V17.437a1.5,1.5,0,0,0,1.5,1.5H19.437a1.5,1.5,0,0,0,1.5-1.5V6.563a1.5,1.5,0,0,0-1.5-1.5Z"/> <path d="M14.568,11.149,10.6,8.432a1.032,1.032,0,0,0-1.614.851v5.434a1.032,1.032,0,0,0,1.614.851l3.972-2.717A1.031,1.031,0,0,0,14.568,11.149Z"/> </g> </g> </g>

</svg>